<svg width="22" height="21" viewBox="0 0 22 21" fill="none" xmlns="http://www.w3.org/2000/svg">
<path d="M11 19.3379C10.8887 19.3379 10.7803 19.335 10.6748 19.3291C10.5693 19.3232 10.4639 19.3145 10.3584 19.3027L9.85742 20.2344C9.79883 20.3516 9.7168 20.4365 9.61133 20.4893C9.50586 20.542 9.38867 20.5625 9.25977 20.5508C9.13086 20.5215 9.02246 20.4629 8.93457 20.375C8.85254 20.2871 8.80566 20.1787 8.79395 20.0498L8.63574 19.0039C8.43066 18.9512 8.22852 18.8867 8.0293 18.8105C7.83008 18.7344 7.63086 18.6553 7.43164 18.5732L6.6582 19.2676C6.56445 19.3555 6.45605 19.4053 6.33301 19.417C6.21582 19.4346 6.0957 19.4111 5.97266 19.3467C5.86133 19.2764 5.78223 19.1855 5.73535 19.0742C5.69434 18.9688 5.68555 18.8516 5.70898 18.7227L5.92871 17.6943C5.75879 17.5713 5.58887 17.4395 5.41895 17.2988C5.24902 17.1641 5.08789 17.0205 4.93555 16.8682L3.97754 17.2637C3.85449 17.3223 3.73438 17.3369 3.61719 17.3076C3.5 17.2783 3.39746 17.208 3.30957 17.0967C3.22168 17.0029 3.1748 16.8975 3.16895 16.7803C3.16309 16.6572 3.19238 16.54 3.25684 16.4287L3.81934 15.5322C3.69629 15.3623 3.58203 15.1836 3.47656 14.9961C3.37695 14.8086 3.27734 14.6152 3.17773 14.416L2.13184 14.4688C2.00293 14.4746 1.88574 14.4453 1.78027 14.3809C1.68066 14.3105 1.60742 14.2139 1.56055 14.0908C1.52539 13.9678 1.52539 13.8506 1.56055 13.7393C1.5957 13.6221 1.66309 13.5225 1.7627 13.4404L2.58887 12.79C2.53027 12.585 2.48047 12.377 2.43945 12.166C2.4043 11.9551 2.38086 11.7383 2.36914 11.5156L1.36719 11.1992C1.09766 11.1113 0.962891 10.9297 0.962891 10.6543C0.962891 10.3789 1.09766 10.1943 1.36719 10.1006L2.36914 9.78418C2.38086 9.56738 2.4043 9.35352 2.43945 9.14258C2.48047 8.93164 2.53027 8.72363 2.58887 8.51855L1.7627 7.86816C1.66309 7.78613 1.59277 7.68945 1.55176 7.57812C1.5166 7.4668 1.51953 7.34961 1.56055 7.22656C1.60742 7.10352 1.68066 7.00977 1.78027 6.94531C1.88574 6.875 2.00293 6.84277 2.13184 6.84863L3.17773 6.88379C3.27734 6.68457 3.37695 6.49414 3.47656 6.3125C3.58203 6.125 3.69629 5.94336 3.81934 5.76758L3.25684 4.87109C3.19238 4.76562 3.16309 4.6543 3.16895 4.53711C3.1748 4.41992 3.22168 4.31445 3.30957 4.2207C3.39746 4.10937 3.5 4.03906 3.61719 4.00977C3.73438 3.98047 3.85449 3.99219 3.97754 4.04492L4.93555 4.43164C5.08789 4.28516 5.24902 4.14453 5.41895 4.00977C5.58887 3.86914 5.75879 3.7373 5.92871 3.61426L5.70898 2.60352C5.67969 2.46289 5.68848 2.33691 5.73535 2.22559C5.78223 2.11426 5.86133 2.0293 5.97266 1.9707C6.0957 1.90625 6.21582 1.87988 6.33301 1.8916C6.45605 1.90332 6.56445 1.95605 6.6582 2.0498L7.43164 2.73535C7.63086 2.64746 7.83008 2.56836 8.0293 2.49805C8.23438 2.42773 8.43652 2.36328 8.63574 2.30469L8.79395 1.26758C8.80566 1.13867 8.85254 1.03027 8.93457 0.942383C9.02246 0.854492 9.12793 0.795898 9.25098 0.766602C9.38574 0.754883 9.50586 0.775391 9.61133 0.828125C9.72266 0.875 9.80469 0.957031 9.85742 1.07422L10.3584 2.00586C10.4639 2 10.5693 1.99414 10.6748 1.98828C10.7803 1.98242 10.8887 1.97949 11 1.97949C11.1113 1.97949 11.2168 1.98242 11.3164 1.98828C11.4219 1.99414 11.5332 2 11.6504 2.00586L12.1338 1.06543C12.1865 0.959961 12.2656 0.880859 12.3711 0.828125C12.4824 0.775391 12.6055 0.754883 12.7402 0.766602C12.8633 0.795898 12.9658 0.854492 13.0479 0.942383C13.1357 1.03027 13.1885 1.13867 13.2061 1.26758L13.3555 2.30469C13.5605 2.36328 13.7656 2.42773 13.9707 2.49805C14.1758 2.56836 14.375 2.64746 14.5684 2.73535L15.333 2.0498C15.4326 1.95605 15.541 1.90332 15.6582 1.8916C15.7812 1.87988 15.9014 1.90625 16.0186 1.9707C16.1299 2.0293 16.209 2.11426 16.2559 2.22559C16.3086 2.33691 16.3174 2.45996 16.2822 2.59473L16.0625 3.61426C16.2383 3.7373 16.4082 3.86914 16.5723 4.00977C16.7422 4.14453 16.9033 4.28516 17.0557 4.43164L18.0137 4.04492C18.1426 3.99219 18.2627 3.98047 18.374 4.00977C18.4912 4.03906 18.5967 4.10937 18.6904 4.2207C18.7725 4.31445 18.8164 4.41992 18.8223 4.53711C18.8281 4.6543 18.7988 4.76562 18.7344 4.87109L18.1719 5.76758C18.3008 5.94336 18.415 6.125 18.5146 6.3125C18.6201 6.49414 18.7197 6.68457 18.8135 6.88379L19.8682 6.84863C19.9971 6.84277 20.1113 6.875 20.2109 6.94531C20.3164 7.00977 20.3896 7.10352 20.4307 7.22656C20.4717 7.34961 20.4717 7.4668 20.4307 7.57812C20.3955 7.68945 20.3281 7.78613 20.2285 7.86816L19.4023 8.51855C19.4609 8.72363 19.5107 8.93164 19.5518 9.14258C19.5928 9.35352 19.6221 9.57031 19.6396 9.79297L20.624 10.1006C20.7529 10.1475 20.8525 10.2207 20.9229 10.3203C20.999 10.4141 21.0371 10.5254 21.0371 10.6543C21.0371 10.7832 20.999 10.8975 20.9229 10.9971C20.8525 11.0908 20.7529 11.1582 20.624 11.1992L19.6396 11.5156C19.6221 11.7383 19.5928 11.9551 19.5518 12.166C19.5107 12.377 19.4609 12.585 19.4023 12.79L20.2373 13.4404C20.3311 13.5225 20.3955 13.6221 20.4307 13.7393C20.4717 13.8506 20.4717 13.9678 20.4307 14.0908C20.3896 14.2139 20.3164 14.3105 20.2109 14.3809C20.1113 14.4453 19.9971 14.4746 19.8682 14.4688L18.8135 14.416C18.7197 14.6152 18.6201 14.8086 18.5146 14.9961C18.415 15.1836 18.3008 15.3623 18.1719 15.5322L18.7344 16.4287C18.8047 16.54 18.834 16.6572 18.8223 16.7803C18.8164 16.8975 18.7725 17.0029 18.6904 17.0967C18.5967 17.208 18.4912 17.2783 18.374 17.3076C18.2568 17.3369 18.1367 17.3252 18.0137 17.2725L17.0645 16.8682C16.9062 17.0205 16.7422 17.1641 16.5723 17.2988C16.4082 17.4395 16.2383 17.5713 16.0625 17.6943L16.2822 18.7139C16.3408 18.9951 16.2529 19.2061 16.0186 19.3467C15.9014 19.4111 15.7812 19.4346 15.6582 19.417C15.541 19.3994 15.4326 19.3496 15.333 19.2676L14.5684 18.5732C14.375 18.6553 14.1758 18.7344 13.9707 18.8105C13.7656 18.8867 13.5605 18.9512 13.3555 19.0039L13.2061 20.0498C13.1885 20.1787 13.1357 20.2871 13.0479 20.375C12.9658 20.4629 12.8662 20.5215 12.749 20.5508C12.6084 20.5625 12.4854 20.542 12.3799 20.4893C12.2744 20.4365 12.1924 20.3516 12.1338 20.2344L11.6504 19.3027C11.5332 19.3145 11.4219 19.3232 11.3164 19.3291C11.2168 19.335 11.1113 19.3379 11 19.3379ZM11 17.7383C11.9844 17.7383 12.9014 17.5566 13.751 17.1934C14.6006 16.8301 15.3418 16.3232 15.9746 15.6729C16.6133 15.0225 17.1113 14.2695 17.4688 13.4141C17.8262 12.5586 18.0049 11.6416 18.0049 10.6631C18.0049 9.67285 17.8262 8.75 17.4688 7.89453C17.1113 7.03906 16.6133 6.28906 15.9746 5.64453C15.3418 4.99414 14.6006 4.4873 13.751 4.12402C12.9014 3.75488 11.9844 3.57031 11 3.57031C10.0156 3.57031 9.09863 3.75488 8.24902 4.12402C7.39941 4.4873 6.65527 4.99414 6.0166 5.64453C5.38379 6.28906 4.88867 7.03906 4.53125 7.89453C4.17383 8.75 3.99512 9.67285 3.99512 10.6631C3.99512 11.6416 4.17383 12.5586 4.53125 13.4141C4.88867 14.2695 5.38379 15.0225 6.0166 15.6729C6.65527 16.3232 7.39941 16.8301 8.24902 17.1934C9.09863 17.5566 10.0156 17.7383 11 17.7383ZM9.3125 9.16016L6.37695 4.13281L7.58984 3.48242L10.4814 8.43945L9.3125 9.16016ZM13.1533 11.3311V9.95996H18.9102L18.9189 11.3311H13.1533ZM10.4814 12.8867L7.48438 17.8086L6.28027 17.1318L9.33008 12.1309L10.4814 12.8867ZM10.9912 13.124C10.5342 13.124 10.1182 13.0127 9.74316 12.79C9.37402 12.5674 9.07812 12.2715 8.85547 11.9023C8.63867 11.5273 8.53027 11.1172 8.53027 10.6719C8.53027 10.2148 8.63867 9.80176 8.85547 9.43262C9.07812 9.05762 9.37402 8.76172 9.74316 8.54492C10.1182 8.32812 10.5342 8.21973 10.9912 8.21973C11.4365 8.21973 11.8438 8.32812 12.2129 8.54492C12.5879 8.76172 12.8838 9.05762 13.1006 9.43262C13.3232 9.80176 13.4346 10.2148 13.4346 10.6719C13.4346 11.1172 13.3232 11.5273 13.1006 11.9023C12.8838 12.2715 12.5879 12.5674 12.2129 12.79C11.8438 13.0127 11.4365 13.124 10.9912 13.124ZM10.9912 11.7266C11.2842 11.7266 11.5303 11.624 11.7295 11.4189C11.9346 11.2139 12.0371 10.9648 12.0371 10.6719C12.0371 10.373 11.9346 10.1211 11.7295 9.91602C11.5303 9.71094 11.2842 9.6084 10.9912 9.6084C10.6865 9.6084 10.4316 9.71094 10.2266 9.91602C10.0273 10.1211 9.92773 10.373 9.92773 10.6719C9.92773 10.9648 10.0273 11.2139 10.2266 11.4189C10.4316 11.624 10.6865 11.7266 10.9912 11.7266Z" fill="#5791F5"/>
</svg>
