<svg width="23" height="15" viewBox="0 0 23 15" fill="none" xmlns="http://www.w3.org/2000/svg">
<path d="M3.45508 14.8877C2.51172 14.8877 1.7793 14.6416 1.25781 14.1494C0.742188 13.6631 0.484375 12.9541 0.484375 12.0225V3.33008C0.484375 2.4043 0.750977 1.68945 1.28418 1.18555C1.82324 0.675781 2.54688 0.420898 3.45508 0.420898H12.7891C13.7324 0.420898 14.4502 0.675781 14.9424 1.18555C15.4404 1.68945 15.6895 2.4043 15.6895 3.33008V11.9785C15.6895 12.9043 15.4287 13.6191 14.9072 14.123C14.3916 14.6328 13.6621 14.8877 12.7188 14.8877H3.45508ZM16.9727 10.458V4.87695L19.9961 2.28418C20.1777 2.12598 20.3594 2.00293 20.541 1.91504C20.7285 1.82129 20.9131 1.77441 21.0947 1.77441C21.4521 1.77441 21.7422 1.8916 21.9648 2.12598C22.1875 2.35449 22.2988 2.66211 22.2988 3.04883V12.2949C22.2988 12.6816 22.1875 12.9922 21.9648 13.2266C21.7422 13.4609 21.4521 13.5781 21.0947 13.5781C20.9131 13.5781 20.7285 13.5312 20.541 13.4375C20.3535 13.3438 20.1719 13.2207 19.9961 13.0684L16.9727 10.458Z" fill="#5791F5"/>
</svg>
