<svg width="19" height="19" viewBox="0 0 19 19" fill="none" xmlns="http://www.w3.org/2000/svg">
<path d="M9.24121 18.7334C7.99902 18.7334 6.83008 18.4961 5.73438 18.0215C4.63867 17.5527 3.67188 16.8994 2.83398 16.0615C2.00195 15.2295 1.34863 14.2656 0.874023 13.1699C0.399414 12.0684 0.162109 10.8965 0.162109 9.6543C0.162109 8.48828 0.373047 7.38672 0.794922 6.34961C1.2168 5.30664 1.7998 4.37793 2.54395 3.56348C3.29395 2.74316 4.16406 2.07812 5.1543 1.56836C6.14453 1.05273 7.21387 0.736328 8.3623 0.619141V9.80371C8.3623 9.93848 8.37695 10.0527 8.40625 10.1465C8.44141 10.2344 8.50586 10.3193 8.59961 10.4014L14.9893 16.6592C14.1807 17.3213 13.2842 17.8311 12.2998 18.1885C11.3154 18.5518 10.2959 18.7334 9.24121 18.7334ZM18.3291 9.6543C18.3291 10.7793 18.124 11.8604 17.7139 12.8975C17.3037 13.9346 16.7441 14.8516 16.0352 15.6484L10.3398 10.0498L17.5029 5.93652C17.7666 6.4873 17.9688 7.08496 18.1094 7.72949C18.2559 8.36816 18.3291 9.00977 18.3291 9.6543ZM9.75977 8.74902V0.592773C10.6973 0.645508 11.6084 0.847656 12.4932 1.19922C13.3779 1.54492 14.1924 2.01953 14.9365 2.62305C15.6807 3.2207 16.3105 3.91211 16.8262 4.69727L9.75977 8.74902Z" fill="#5791F5"/>
</svg>
