<svg width="21" height="19" viewBox="0 0 21 19" fill="none" xmlns="http://www.w3.org/2000/svg">
<path d="M0.911133 18.1885C0.911133 17.9717 0.990234 17.7842 1.14844 17.626C1.30664 17.4678 1.49414 17.3887 1.71094 17.3887H19.2715C19.4941 17.3887 19.6846 17.4678 19.8428 17.626C20.001 17.7842 20.0801 17.9717 20.0801 18.1885C20.0801 18.4111 20.001 18.6016 19.8428 18.7598C19.6846 18.9238 19.4941 19.0059 19.2715 19.0059H1.71094C1.49414 19.0059 1.30664 18.9238 1.14844 18.7598C0.990234 18.6016 0.911133 18.4111 0.911133 18.1885ZM2.43164 8.18652V7.9668C2.43164 7.76758 2.4873 7.60938 2.59863 7.49219C2.71582 7.375 2.87695 7.31641 3.08203 7.31641H5.26172C5.47266 7.31641 5.63672 7.375 5.75391 7.49219C5.87109 7.60938 5.92969 7.76758 5.92969 7.9668V8.18652C5.92969 8.38574 5.87109 8.54395 5.75391 8.66113C5.63672 8.77832 5.47266 8.83691 5.26172 8.83691H3.08203C2.87695 8.83691 2.71582 8.77832 2.59863 8.66113C2.4873 8.54395 2.43164 8.38574 2.43164 8.18652ZM3.41602 15.4814V8.2041H4.93652V15.4814H3.41602ZM2.43164 15.9385V15.7188C2.43164 15.5195 2.4873 15.3613 2.59863 15.2441C2.71582 15.127 2.87695 15.0684 3.08203 15.0684H5.26172C5.47266 15.0684 5.63672 15.127 5.75391 15.2441C5.87109 15.3613 5.92969 15.5195 5.92969 15.7188V15.9385C5.92969 16.1436 5.87109 16.3047 5.75391 16.4219C5.63672 16.5391 5.47266 16.5977 5.26172 16.5977H3.08203C2.87695 16.5977 2.71582 16.5391 2.59863 16.4219C2.4873 16.3047 2.43164 16.1436 2.43164 15.9385ZM6.65918 8.18652V7.9668C6.65918 7.76758 6.71777 7.60938 6.83496 7.49219C6.95215 7.375 7.11328 7.31641 7.31836 7.31641H9.49805C9.70312 7.31641 9.86426 7.375 9.98145 7.49219C10.0986 7.60938 10.1572 7.76758 10.1572 7.9668V8.18652C10.1572 8.38574 10.0986 8.54395 9.98145 8.66113C9.86426 8.77832 9.70312 8.83691 9.49805 8.83691H7.31836C7.11328 8.83691 6.95215 8.77832 6.83496 8.66113C6.71777 8.54395 6.65918 8.38574 6.65918 8.18652ZM7.66113 15.4814V8.2041H9.18164V15.4814H7.66113ZM6.65918 15.9385V15.7188C6.65918 15.5195 6.71777 15.3613 6.83496 15.2441C6.95215 15.127 7.11328 15.0684 7.31836 15.0684H9.49805C9.70312 15.0684 9.86426 15.127 9.98145 15.2441C10.0986 15.3613 10.1572 15.5195 10.1572 15.7188V15.9385C10.1572 16.1436 10.0986 16.3047 9.98145 16.4219C9.86426 16.5391 9.70312 16.5977 9.49805 16.5977H7.31836C7.11328 16.5977 6.95215 16.5391 6.83496 16.4219C6.71777 16.3047 6.65918 16.1436 6.65918 15.9385ZM10.9043 8.18652V7.9668C10.9043 7.76758 10.9629 7.60938 11.0801 7.49219C11.1973 7.375 11.3584 7.31641 11.5635 7.31641H13.7432C13.9482 7.31641 14.1094 7.375 14.2266 7.49219C14.3438 7.60938 14.4023 7.76758 14.4023 7.9668V8.18652C14.4023 8.38574 14.3438 8.54395 14.2266 8.66113C14.1094 8.77832 13.9482 8.83691 13.7432 8.83691H11.5635C11.3584 8.83691 11.1973 8.77832 11.0801 8.66113C10.9629 8.54395 10.9043 8.38574 10.9043 8.18652ZM11.8975 15.4814V8.2041H13.418V15.4814H11.8975ZM10.9043 15.9385V15.7188C10.9043 15.5195 10.9629 15.3613 11.0801 15.2441C11.1973 15.127 11.3584 15.0684 11.5635 15.0684H13.7432C13.9482 15.0684 14.1094 15.127 14.2266 15.2441C14.3438 15.3613 14.4023 15.5195 14.4023 15.7188V15.9385C14.4023 16.1436 14.3438 16.3047 14.2266 16.4219C14.1094 16.5391 13.9482 16.5977 13.7432 16.5977H11.5635C11.3584 16.5977 11.1973 16.5391 11.0801 16.4219C10.9629 16.3047 10.9043 16.1436 10.9043 15.9385ZM15.1406 8.18652V7.9668C15.1406 7.76758 15.1992 7.60938 15.3164 7.49219C15.4336 7.375 15.5947 7.31641 15.7998 7.31641H17.9795C18.1846 7.31641 18.3457 7.375 18.4629 7.49219C18.5801 7.60938 18.6387 7.76758 18.6387 7.9668V8.18652C18.6387 8.38574 18.5801 8.54395 18.4629 8.66113C18.3457 8.77832 18.1846 8.83691 17.9795 8.83691H15.7998C15.5947 8.83691 15.4336 8.77832 15.3164 8.66113C15.1992 8.54395 15.1406 8.38574 15.1406 8.18652ZM16.1338 15.4814V8.2041H17.6543V15.4814H16.1338ZM15.1406 15.9385V15.7188C15.1406 15.5195 15.1992 15.3613 15.3164 15.2441C15.4336 15.127 15.5947 15.0684 15.7998 15.0684H17.9795C18.1846 15.0684 18.3457 15.127 18.4629 15.2441C18.5801 15.3613 18.6387 15.5195 18.6387 15.7188V15.9385C18.6387 16.1436 18.5801 16.3047 18.4629 16.4219C18.3457 16.5391 18.1846 16.5977 17.9795 16.5977H15.7998C15.5947 16.5977 15.4336 16.5391 15.3164 16.4219C15.1992 16.3047 15.1406 16.1436 15.1406 15.9385ZM2.20312 6.53418C1.93359 6.53418 1.72266 6.45508 1.57031 6.29688C1.41797 6.13281 1.3418 5.94531 1.3418 5.73438C1.3418 5.57031 1.38281 5.42383 1.46484 5.29492C1.55273 5.16602 1.68457 5.05176 1.86035 4.95215L9.36621 0.62793C9.73535 0.416992 10.1104 0.311523 10.4912 0.311523C10.8721 0.311523 11.25 0.416992 11.625 0.62793L19.1309 4.95215C19.3008 5.05176 19.4268 5.16602 19.5088 5.29492C19.5967 5.42383 19.6406 5.57031 19.6406 5.73438C19.6406 5.94531 19.5645 6.13281 19.4121 6.29688C19.2656 6.45508 19.0547 6.53418 18.7793 6.53418H2.20312Z" fill="#5791F5"/>
</svg>
